<svg width="280" height="280" viewBox="0 0 280 280" fill="none" xmlns="http://www.w3.org/2000/svg">
<rect width="280" height="280" fill="#848484"/>
<rect x="35" y="33" width="210" height="107" fill="#393939"/>
<rect x="60" y="140" width="160" height="24" fill="#393939"/>
<rect y="164" width="280" height="116" fill="#393939"/>
<path d="M74.5325 90.2045V120H64.764V69.8182H74.1404V77.9858H74.7612C75.9155 75.3286 77.7233 73.1941 80.1845 71.5824C82.6674 69.9706 85.7929 69.1648 89.5609 69.1648C92.9804 69.1648 95.9752 69.8835 98.5453 71.321C101.115 72.7367 103.108 74.8494 104.524 77.6591C105.94 80.4687 106.648 83.9427 106.648 88.081V120H96.8791V89.2571C96.8791 85.6198 95.9316 82.7775 94.0368 80.7301C92.1419 78.661 89.5391 77.6264 86.2285 77.6264C83.9634 77.6264 81.9487 78.1165 80.1845 79.0966C78.4421 80.0767 77.059 81.5142 76.0353 83.4091C75.0334 85.2822 74.5325 87.5473 74.5325 90.2045ZM119.618 120V112.682L142.258 89.2244C144.676 86.6761 146.669 84.4437 148.237 82.527C149.827 80.5885 151.014 78.7481 151.798 77.0057C152.582 75.2633 152.974 73.4119 152.974 71.4517C152.974 69.2301 152.452 67.3134 151.406 65.7017C150.361 64.0682 148.934 62.8158 147.126 61.9446C145.318 61.0516 143.282 60.6051 141.017 60.6051C138.621 60.6051 136.53 61.0952 134.744 62.0753C132.958 63.0554 131.586 64.4384 130.628 66.2244C129.669 68.0104 129.19 70.1013 129.19 72.4972H119.552C119.552 68.4242 120.489 64.8632 122.362 61.8139C124.235 58.7647 126.805 56.4015 130.072 54.7244C133.339 53.0256 137.053 52.1761 141.213 52.1761C145.416 52.1761 149.119 53.0147 152.321 54.6918C155.544 56.3471 158.06 58.6122 159.868 61.4872C161.675 64.3404 162.579 67.5639 162.579 71.1577C162.579 73.6406 162.111 76.0691 161.175 78.4432C160.26 80.8172 158.659 83.4635 156.372 86.3821C154.085 89.2789 150.905 92.7964 146.832 96.9347L133.535 110.852V111.342H163.657V120H119.618ZM197.308 121.013C192.451 121.013 188.269 119.913 184.763 117.713C181.278 115.491 178.599 112.431 176.726 108.533C174.853 104.634 173.916 100.169 173.916 95.1378C173.916 90.0412 174.874 85.5436 176.791 81.6449C178.708 77.7244 181.408 74.6643 184.893 72.4645C188.378 70.2647 192.484 69.1648 197.21 69.1648C201.022 69.1648 204.419 69.8726 207.403 71.2884C210.387 72.6823 212.794 74.6425 214.623 77.169C216.475 79.6955 217.575 82.6468 217.923 86.0227H208.416C207.893 83.6705 206.695 81.6449 204.822 79.946C202.971 78.2472 200.488 77.3977 197.373 77.3977C194.651 77.3977 192.266 78.1165 190.219 79.554C188.193 80.9697 186.614 82.9953 185.481 85.6307C184.349 88.2443 183.782 91.3371 183.782 94.9091C183.782 98.5682 184.338 101.726 185.449 104.384C186.559 107.041 188.128 109.099 190.153 110.558C192.201 112.018 194.607 112.747 197.373 112.747C199.225 112.747 200.902 112.41 202.405 111.734C203.929 111.037 205.203 110.046 206.227 108.761C207.273 107.476 208.002 105.93 208.416 104.122H217.923C217.575 107.367 216.518 110.264 214.754 112.812C212.99 115.361 210.627 117.365 207.665 118.824C204.724 120.283 201.272 121.013 197.308 121.013Z" fill="white"/>
</svg>
